<?xml version="1.0" encoding="UTF-8" standalone="no"?>
<!DOCTYPE svg PUBLIC "-//W3C//DTD SVG 1.1//EN" "http://www.w3.org/Graphics/SVG/1.1/DTD/svg11.dtd">
<svg width="100%" height="100%" viewBox="0 0 483 168" version="1.1" xmlns="http://www.w3.org/2000/svg" xmlns:xlink="http://www.w3.org/1999/xlink" xml:space="preserve" xmlns:serif="http://www.serif.com/" style="fill-rule:evenodd;clip-rule:evenodd;stroke-linejoin:round;stroke-miterlimit:2;">
    <g transform="matrix(1,0,0,1,0,-0.319)">
        <path d="M72.974,28.769L72.974,28.78L11.788,168L0,168L46.958,0.319L68.901,0.319L75.383,22.856L72.974,28.769Z"/>
        <path d="M125.043,81.482C126.075,83.317 126.733,85.088 127.014,86.794C125.043,87.562 123.025,88.117 120.96,88.458C118.895,88.8 116.665,88.97 114.272,88.97C110.611,88.97 107.314,88.426 104.381,87.338C101.447,86.25 98.971,84.693 96.953,82.666C94.935,80.64 93.386,78.176 92.307,75.274C91.227,72.373 90.688,69.109 90.688,65.482C90.688,61.813 91.227,58.496 92.307,55.53C93.386,52.565 94.935,50.037 96.953,47.946C98.971,45.856 101.435,44.245 104.345,43.114C107.255,41.984 110.517,41.418 114.131,41.418C116.806,41.418 119.106,41.589 121.03,41.93C122.954,42.272 124.667,42.677 126.169,43.146C126.075,44.128 125.876,45.034 125.571,45.866C125.266,46.698 124.902,47.584 124.48,48.522C123.776,48.309 123.095,48.117 122.438,47.946C121.781,47.776 121.077,47.626 120.326,47.498C119.575,47.37 118.742,47.274 117.827,47.21C116.912,47.146 115.867,47.114 114.694,47.114C109.578,47.114 105.601,48.693 102.761,51.85C99.922,55.008 98.502,59.552 98.502,65.482C98.502,68.512 98.901,71.136 99.699,73.354C100.497,75.573 101.623,77.408 103.078,78.858C104.533,80.309 106.281,81.397 108.323,82.122C110.365,82.848 112.653,83.21 115.187,83.21C117.158,83.21 118.942,83.061 120.537,82.762C122.133,82.464 123.635,82.037 125.043,81.482Z" style="fill-rule:nonzero;"/>
        <path d="M132.083,41.29C132.599,41.205 133.174,41.141 133.808,41.098C134.441,41.056 135.016,41.034 135.533,41.034C136.049,41.034 136.635,41.056 137.293,41.098C137.95,41.141 138.536,41.205 139.053,41.29L139.053,60.362C139.475,59.765 140.003,59.125 140.637,58.442C141.27,57.76 142.045,57.13 142.96,56.554C143.875,55.978 144.931,55.509 146.128,55.146C147.325,54.784 148.65,54.602 150.105,54.602C154.235,54.602 157.298,55.68 159.293,57.834C161.287,59.989 162.285,63.178 162.285,67.402L162.285,88.202C161.768,88.288 161.193,88.352 160.56,88.394C159.926,88.437 159.351,88.458 158.835,88.458C158.319,88.458 157.744,88.437 157.11,88.394C156.477,88.352 155.902,88.288 155.385,88.202L155.385,69.13C155.385,66.101 154.834,63.872 153.731,62.442C152.628,61.013 150.95,60.298 148.697,60.298C147.43,60.298 146.21,60.501 145.037,60.906C143.863,61.312 142.831,61.952 141.939,62.826C141.047,63.701 140.343,64.842 139.827,66.25C139.311,67.658 139.053,69.365 139.053,71.37L139.053,88.202C138.536,88.288 137.95,88.352 137.293,88.394C136.635,88.437 136.049,88.458 135.533,88.458C135.063,88.458 134.5,88.437 133.843,88.394C133.186,88.352 132.599,88.288 132.083,88.202L132.083,41.29Z" style="fill-rule:nonzero;"/>
        <path d="M188.403,72.778C187.699,72.693 186.807,72.608 185.728,72.522C184.648,72.437 183.733,72.394 182.982,72.394C180.072,72.394 177.855,72.885 176.329,73.866C174.804,74.848 174.041,76.341 174.041,78.346C174.041,79.626 174.299,80.629 174.816,81.354C175.332,82.08 175.977,82.634 176.752,83.018C177.526,83.402 178.383,83.637 179.321,83.722C180.26,83.808 181.152,83.85 181.997,83.85C183.076,83.85 184.191,83.797 185.341,83.69C186.49,83.584 187.511,83.424 188.403,83.21L188.403,72.778ZM188.403,66.57C188.403,64.053 187.699,62.304 186.291,61.322C184.883,60.341 182.841,59.85 180.166,59.85C178.523,59.85 176.986,59.968 175.555,60.202C174.123,60.437 172.727,60.746 171.366,61.13C170.474,59.722 170.029,58.037 170.029,56.074C171.624,55.605 173.384,55.242 175.309,54.986C177.233,54.73 179.087,54.602 180.87,54.602C185.563,54.602 189.13,55.573 191.571,57.514C194.011,59.456 195.232,62.56 195.232,66.826L195.232,87.37C193.589,87.712 191.594,88.064 189.248,88.426C186.901,88.789 184.507,88.97 182.067,88.97C179.767,88.97 177.69,88.778 175.837,88.394C173.983,88.01 172.41,87.392 171.12,86.538C169.829,85.685 168.832,84.597 168.128,83.274C167.424,81.952 167.072,80.352 167.072,78.474C167.072,76.64 167.482,75.029 168.304,73.642C169.125,72.256 170.24,71.104 171.648,70.186C173.056,69.269 174.675,68.586 176.505,68.138C178.336,67.69 180.26,67.466 182.278,67.466C183.78,67.466 185.012,67.498 185.974,67.562C186.936,67.626 187.746,67.701 188.403,67.786L188.403,66.57Z" style="fill-rule:nonzero;"/>
        <path d="M204.313,60.362L199.737,60.362C199.643,60.021 199.573,59.626 199.526,59.178C199.479,58.73 199.456,58.293 199.456,57.866C199.456,57.44 199.479,57.002 199.526,56.554C199.573,56.106 199.643,55.712 199.737,55.37L211.142,55.37L211.142,88.202C210.626,88.288 210.051,88.352 209.417,88.394C208.784,88.437 208.209,88.458 207.693,88.458C207.223,88.458 206.672,88.437 206.038,88.394C205.405,88.352 204.83,88.288 204.313,88.202L204.313,60.362ZM202.765,48.138C202.671,47.626 202.612,47.072 202.589,46.474C202.565,45.877 202.553,45.344 202.553,44.874C202.553,44.405 202.565,43.872 202.589,43.274C202.612,42.677 202.671,42.144 202.765,41.674C203.375,41.589 204.032,41.525 204.736,41.482C205.44,41.44 206.05,41.418 206.566,41.418C207.082,41.418 207.693,41.44 208.397,41.482C209.101,41.525 209.734,41.589 210.297,41.674C210.391,42.144 210.45,42.677 210.473,43.274C210.497,43.872 210.509,44.405 210.509,44.874C210.509,45.344 210.497,45.877 210.473,46.474C210.45,47.072 210.391,47.626 210.297,48.138C209.734,48.224 209.112,48.288 208.432,48.33C207.751,48.373 207.153,48.394 206.637,48.394C206.073,48.394 205.44,48.373 204.736,48.33C204.032,48.288 203.375,48.224 202.765,48.138Z" style="fill-rule:nonzero;"/>
        <path d="M218.957,55.37C219.473,55.285 219.966,55.221 220.435,55.178C220.904,55.136 221.397,55.114 221.913,55.114C222.43,55.114 222.946,55.136 223.462,55.178C223.978,55.221 224.448,55.285 224.87,55.37C225.011,56.01 225.152,56.853 225.293,57.898C225.433,58.944 225.504,59.829 225.504,60.554C226.489,59.104 227.792,57.845 229.411,56.778C231.03,55.712 233.107,55.178 235.641,55.178C236.017,55.178 236.404,55.189 236.803,55.21C237.202,55.232 237.542,55.264 237.824,55.306C237.918,55.69 237.988,56.096 238.035,56.522C238.082,56.949 238.105,57.397 238.105,57.866C238.105,58.378 238.07,58.912 238,59.466C237.929,60.021 237.847,60.554 237.753,61.066C237.378,60.981 236.991,60.938 236.592,60.938L235.641,60.938C234.374,60.938 233.166,61.098 232.016,61.418C230.866,61.738 229.833,62.304 228.918,63.114C228.003,63.925 227.275,65.034 226.736,66.442C226.196,67.85 225.926,69.664 225.926,71.882L225.926,88.202C225.41,88.288 224.835,88.352 224.201,88.394C223.568,88.437 222.993,88.458 222.477,88.458C221.96,88.458 221.385,88.437 220.752,88.394C220.118,88.352 219.52,88.288 218.957,88.202L218.957,55.37Z" style="fill-rule:nonzero;"/>
        <path d="M246.835,73.354C246.929,76.938 247.95,79.562 249.897,81.226C251.845,82.89 254.72,83.722 258.521,83.722C261.854,83.722 265.022,83.189 268.025,82.122C268.401,82.762 268.706,83.541 268.941,84.458C269.175,85.376 269.316,86.282 269.363,87.178C267.814,87.776 266.113,88.224 264.259,88.522C262.405,88.821 260.352,88.97 258.099,88.97C254.814,88.97 251.998,88.554 249.651,87.722C247.304,86.89 245.368,85.717 243.843,84.202C242.318,82.688 241.203,80.896 240.499,78.826C239.795,76.757 239.443,74.485 239.443,72.01C239.443,69.578 239.783,67.306 240.464,65.194C241.144,63.082 242.189,61.248 243.597,59.69C245.005,58.133 246.776,56.896 248.912,55.978C251.047,55.061 253.57,54.602 256.48,54.602C258.967,54.602 261.15,54.986 263.027,55.754C264.904,56.522 266.477,57.578 267.744,58.922C269.011,60.266 269.973,61.866 270.63,63.722C271.287,65.578 271.616,67.594 271.616,69.77C271.616,70.368 271.592,70.997 271.545,71.658C271.498,72.32 271.451,72.885 271.405,73.354L246.835,73.354ZM264.717,68.618C264.717,67.424 264.541,66.282 264.189,65.194C263.837,64.106 263.32,63.157 262.64,62.346C261.959,61.536 261.091,60.885 260.035,60.394C258.979,59.904 257.723,59.658 256.269,59.658C253.406,59.658 251.211,60.448 249.686,62.026C248.161,63.605 247.234,65.802 246.905,68.618L264.717,68.618Z" style="fill-rule:nonzero;"/>
        <path d="M291.046,42.186C292.642,42.016 294.566,41.856 296.819,41.706C299.072,41.557 301.278,41.482 303.437,41.482C312.307,41.482 318.936,43.53 323.325,47.626C327.713,51.722 329.907,57.61 329.907,65.29C329.907,73.312 327.666,79.264 323.184,83.146C318.702,87.029 312.025,88.97 303.155,88.97C300.949,88.97 298.767,88.896 296.608,88.746C294.449,88.597 292.595,88.416 291.046,88.202L291.046,42.186ZM298.227,82.826C298.884,82.912 299.694,82.986 300.656,83.05C301.618,83.114 302.639,83.146 303.718,83.146C306.487,83.146 309.01,82.858 311.286,82.282C313.562,81.706 315.522,80.736 317.165,79.37C318.807,78.005 320.074,76.16 320.966,73.834C321.858,71.509 322.304,68.597 322.304,65.098C322.304,61.898 321.858,59.168 320.966,56.906C320.074,54.645 318.819,52.8 317.2,51.37C315.581,49.941 313.645,48.906 311.392,48.266C309.139,47.626 306.651,47.306 303.929,47.306C303.038,47.306 302.064,47.317 301.008,47.338C299.952,47.36 299.025,47.434 298.227,47.562L298.227,82.826Z" style="fill-rule:nonzero;"/>
        <path d="M341.312,73.354C341.406,76.938 342.426,79.562 344.374,81.226C346.322,82.89 349.197,83.722 352.998,83.722C356.33,83.722 359.498,83.189 362.502,82.122C362.878,82.762 363.183,83.541 363.417,84.458C363.652,85.376 363.793,86.282 363.84,87.178C362.291,87.776 360.59,88.224 358.736,88.522C356.882,88.821 354.829,88.97 352.576,88.97C349.29,88.97 346.474,88.554 344.128,87.722C341.781,86.89 339.845,85.717 338.32,84.202C336.794,82.688 335.68,80.896 334.976,78.826C334.272,76.757 333.92,74.485 333.92,72.01C333.92,69.578 334.26,67.306 334.941,65.194C335.621,63.082 336.665,61.248 338.073,59.69C339.481,58.133 341.253,56.896 343.389,55.978C345.524,55.061 348.047,54.602 350.957,54.602C353.444,54.602 355.626,54.986 357.504,55.754C359.381,56.522 360.953,57.578 362.221,58.922C363.488,60.266 364.45,61.866 365.107,63.722C365.764,65.578 366.093,67.594 366.093,69.77C366.093,70.368 366.069,70.997 366.022,71.658C365.975,72.32 365.928,72.885 365.881,73.354L341.312,73.354ZM359.193,68.618C359.193,67.424 359.017,66.282 358.665,65.194C358.313,64.106 357.797,63.157 357.117,62.346C356.436,61.536 355.568,60.885 354.512,60.394C353.456,59.904 352.2,59.658 350.745,59.658C347.882,59.658 345.688,60.448 344.163,62.026C342.638,63.605 341.711,65.802 341.382,68.618L359.193,68.618Z" style="fill-rule:nonzero;"/>
        <path d="M371.091,82.25C372.358,82.72 373.754,83.093 375.28,83.37C376.805,83.648 378.319,83.786 379.821,83.786C380.9,83.786 381.933,83.68 382.918,83.466C383.904,83.253 384.76,82.933 385.488,82.506C386.215,82.08 386.802,81.557 387.248,80.938C387.694,80.32 387.917,79.626 387.917,78.858C387.917,78.005 387.741,77.301 387.389,76.746C387.037,76.192 386.567,75.722 385.981,75.338C385.394,74.954 384.713,74.624 383.939,74.346C383.165,74.069 382.331,73.802 381.44,73.546L378.976,72.714C375.972,71.69 373.79,70.538 372.429,69.258C371.067,67.978 370.387,66.25 370.387,64.074C370.387,61.173 371.525,58.869 373.801,57.162C376.078,55.456 379.422,54.602 383.833,54.602C385.664,54.602 387.459,54.762 389.219,55.082C390.979,55.402 392.516,55.776 393.83,56.202C393.736,57.056 393.56,57.909 393.302,58.762C393.044,59.616 392.727,60.405 392.352,61.13C391.319,60.789 390.087,60.458 388.656,60.138C387.224,59.818 385.687,59.658 384.045,59.658C382.308,59.658 380.771,59.936 379.433,60.49C378.096,61.045 377.427,62.026 377.427,63.434C377.427,64.16 377.591,64.778 377.92,65.29C378.248,65.802 378.694,66.24 379.257,66.602C379.821,66.965 380.466,67.274 381.193,67.53C381.921,67.786 382.707,68.042 383.552,68.298L386.649,69.258C387.776,69.6 388.843,70.005 389.853,70.474C390.862,70.944 391.73,71.53 392.457,72.234C393.185,72.938 393.771,73.792 394.217,74.794C394.663,75.797 394.886,77.002 394.886,78.41C394.886,79.989 394.534,81.429 393.83,82.73C393.126,84.032 392.129,85.141 390.838,86.058C389.547,86.976 387.987,87.69 386.157,88.202C384.326,88.714 382.308,88.97 380.102,88.97C377.849,88.97 375.878,88.832 374.189,88.554C372.499,88.277 370.927,87.904 369.472,87.434C369.566,86.581 369.765,85.717 370.07,84.842C370.375,83.968 370.715,83.104 371.091,82.25Z" style="fill-rule:nonzero;"/>
        <path d="M402.349,60.362L397.773,60.362C397.679,60.021 397.608,59.626 397.561,59.178C397.514,58.73 397.491,58.293 397.491,57.866C397.491,57.44 397.514,57.002 397.561,56.554C397.608,56.106 397.679,55.712 397.773,55.37L409.177,55.37L409.177,88.202C408.661,88.288 408.086,88.352 407.453,88.394C406.819,88.437 406.244,88.458 405.728,88.458C405.258,88.458 404.707,88.437 404.073,88.394C403.44,88.352 402.865,88.288 402.349,88.202L402.349,60.362ZM400.8,48.138C400.706,47.626 400.647,47.072 400.624,46.474C400.6,45.877 400.589,45.344 400.589,44.874C400.589,44.405 400.6,43.872 400.624,43.274C400.647,42.677 400.706,42.144 400.8,41.674C401.41,41.589 402.067,41.525 402.771,41.482C403.475,41.44 404.085,41.418 404.601,41.418C405.118,41.418 405.728,41.44 406.432,41.482C407.136,41.525 407.769,41.589 408.333,41.674C408.426,42.144 408.485,42.677 408.509,43.274C408.532,43.872 408.544,44.405 408.544,44.874C408.544,45.344 408.532,45.877 408.509,46.474C408.485,47.072 408.426,47.626 408.333,48.138C407.769,48.224 407.147,48.288 406.467,48.33C405.786,48.373 405.188,48.394 404.672,48.394C404.109,48.394 403.475,48.373 402.771,48.33C402.067,48.288 401.41,48.224 400.8,48.138Z" style="fill-rule:nonzero;"/>
        <path d="M436.352,83.978C440.529,84.064 443.556,84.874 445.433,86.41C447.311,87.946 448.249,90.058 448.249,92.746C448.249,94.496 447.757,96.064 446.771,97.45C445.785,98.837 444.424,100.032 442.688,101.034C440.951,102.037 438.898,102.805 436.528,103.338C434.158,103.872 431.588,104.138 428.819,104.138C423.985,104.138 420.301,103.456 417.766,102.09C415.232,100.725 413.965,98.57 413.965,95.626C413.965,93.877 414.481,92.309 415.513,90.922C416.546,89.536 417.883,88.437 419.526,87.626C418.587,87.072 417.801,86.378 417.168,85.546C416.534,84.714 416.217,83.68 416.217,82.442C416.217,80.864 416.605,79.498 417.379,78.346C418.153,77.194 419.198,76.17 420.512,75.274C418.963,74.293 417.719,73.024 416.781,71.466C415.842,69.909 415.373,68.149 415.373,66.186C415.373,64.565 415.701,63.05 416.358,61.642C417.015,60.234 417.966,59.008 419.209,57.962C420.453,56.917 421.99,56.096 423.821,55.498C425.651,54.901 427.739,54.602 430.086,54.602C432.198,54.602 434.111,54.88 435.824,55.434C437.537,55.989 439.003,56.693 440.224,57.546C441.162,56.864 442.43,56.298 444.025,55.85C445.621,55.402 447.381,55.178 449.305,55.178C449.493,55.989 449.587,56.885 449.587,57.866C449.587,58.336 449.563,58.826 449.517,59.338C449.47,59.85 449.399,60.362 449.305,60.874L442.969,60.874C443.486,61.6 443.885,62.389 444.166,63.242C444.448,64.096 444.589,65.077 444.589,66.186C444.589,67.936 444.237,69.514 443.533,70.922C442.829,72.33 441.831,73.536 440.541,74.538C439.25,75.541 437.713,76.309 435.929,76.842C434.146,77.376 432.198,77.642 430.086,77.642C428.162,77.642 426.425,77.45 424.877,77.066C424.219,77.408 423.574,77.93 422.941,78.634C422.307,79.338 421.99,80.096 421.99,80.906C421.99,81.674 422.295,82.346 422.905,82.922C423.515,83.498 424.877,83.808 426.989,83.85L436.352,83.978ZM426.848,89.034C424.736,88.992 423.152,89.504 422.096,90.57C421.04,91.637 420.512,92.917 420.512,94.41C420.512,95.349 420.723,96.117 421.145,96.714C421.568,97.312 422.166,97.792 422.941,98.154C423.715,98.517 424.63,98.773 425.686,98.922C426.742,99.072 427.904,99.146 429.171,99.146C432.926,99.146 435.859,98.581 437.971,97.45C440.083,96.32 441.139,94.901 441.139,93.194C441.139,91.914 440.693,90.933 439.801,90.25C438.91,89.568 437.267,89.205 434.873,89.162L426.848,89.034ZM430.086,73.034C432.621,73.034 434.498,72.394 435.718,71.114C436.938,69.834 437.549,68.192 437.549,66.186C437.549,64.138 436.938,62.464 435.718,61.162C434.498,59.861 432.621,59.21 430.086,59.21C427.552,59.21 425.686,59.861 424.489,61.162C423.293,62.464 422.694,64.138 422.694,66.186C422.694,68.192 423.293,69.834 424.489,71.114C425.686,72.394 427.552,73.034 430.086,73.034Z" style="fill-rule:nonzero;"/>
        <path d="M452.403,55.37C452.919,55.285 453.424,55.221 453.917,55.178C454.409,55.136 454.914,55.114 455.43,55.114C455.946,55.114 456.427,55.136 456.873,55.178C457.319,55.221 457.8,55.285 458.317,55.37C458.457,56.01 458.598,56.874 458.739,57.962C458.88,59.05 458.95,59.957 458.95,60.682C459.419,59.957 460.018,59.232 460.745,58.506C461.473,57.781 462.306,57.13 463.245,56.554C464.183,55.978 465.263,55.509 466.483,55.146C467.703,54.784 469.041,54.602 470.496,54.602C474.626,54.602 477.677,55.68 479.648,57.834C481.619,59.989 482.605,63.178 482.605,67.402L482.605,88.202C482.088,88.288 481.502,88.352 480.845,88.394C480.187,88.437 479.601,88.458 479.085,88.458C478.568,88.458 477.993,88.437 477.36,88.394C476.726,88.352 476.151,88.288 475.635,88.202L475.635,69.13C475.635,66.101 475.119,63.872 474.086,62.442C473.054,61.013 471.411,60.298 469.158,60.298C467.844,60.298 466.6,60.512 465.427,60.938C464.254,61.365 463.221,62.026 462.329,62.922C461.438,63.818 460.722,64.981 460.182,66.41C459.642,67.84 459.373,69.557 459.373,71.562L459.373,88.202C458.856,88.288 458.281,88.352 457.648,88.394C457.014,88.437 456.439,88.458 455.923,88.458C455.407,88.458 454.82,88.437 454.163,88.394C453.506,88.352 452.919,88.288 452.403,88.202L452.403,55.37Z" style="fill-rule:nonzero;"/>
        <path d="M74.021,108.887L65.151,108.887C65.057,108.461 64.986,107.991 64.939,107.479C64.892,106.967 64.869,106.477 64.869,106.007C64.869,105.538 64.892,105.058 64.939,104.567C64.986,104.077 65.057,103.618 65.151,103.191L81.202,103.191L81.202,136.407C81.202,138.967 80.897,141.122 80.287,142.871C79.676,144.621 78.785,146.018 77.611,147.063C76.438,148.109 75.007,148.855 73.317,149.303C71.627,149.751 69.727,149.975 67.615,149.975C66.488,149.975 65.362,149.901 64.235,149.751C63.109,149.602 62.076,149.421 61.138,149.207C61.138,148.354 61.232,147.458 61.419,146.519C61.607,145.581 61.889,144.621 62.264,143.639C62.827,143.767 63.473,143.906 64.2,144.055C64.928,144.205 65.69,144.279 66.488,144.279C67.333,144.279 68.189,144.215 69.058,144.087C69.926,143.959 70.736,143.682 71.487,143.255C72.237,142.829 72.848,142.189 73.317,141.335C73.786,140.482 74.021,139.33 74.021,137.879L74.021,108.887Z" style="fill-rule:nonzero;"/>
        <path d="M94.367,134.359C94.46,137.943 95.481,140.567 97.429,142.231C99.377,143.895 102.251,144.727 106.053,144.727C109.385,144.727 112.553,144.194 115.557,143.127C115.932,143.767 116.237,144.546 116.472,145.463C116.707,146.381 116.848,147.287 116.895,148.183C115.346,148.781 113.644,149.229 111.791,149.527C109.937,149.826 107.883,149.975 105.631,149.975C102.345,149.975 99.529,149.559 97.183,148.727C94.836,147.895 92.9,146.722 91.375,145.207C89.849,143.693 88.735,141.901 88.031,139.831C87.327,137.762 86.975,135.49 86.975,133.015C86.975,130.583 87.315,128.311 87.995,126.199C88.676,124.087 89.72,122.253 91.128,120.695C92.536,119.138 94.308,117.901 96.443,116.983C98.579,116.066 101.101,115.607 104.011,115.607C106.499,115.607 108.681,115.991 110.559,116.759C112.436,117.527 114.008,118.583 115.275,119.927C116.543,121.271 117.505,122.871 118.162,124.727C118.819,126.583 119.147,128.599 119.147,130.775C119.147,131.373 119.124,132.002 119.077,132.663C119.03,133.325 118.983,133.89 118.936,134.359L94.367,134.359ZM112.248,129.623C112.248,128.429 112.072,127.287 111.72,126.199C111.368,125.111 110.852,124.162 110.171,123.351C109.491,122.541 108.623,121.89 107.567,121.399C106.511,120.909 105.255,120.663 103.8,120.663C100.937,120.663 98.743,121.453 97.218,123.031C95.692,124.61 94.765,126.807 94.437,129.623L112.248,129.623Z" style="fill-rule:nonzero;"/>
        <path d="M143.858,133.783C143.154,133.698 142.262,133.613 141.183,133.527C140.103,133.442 139.188,133.399 138.437,133.399C135.527,133.399 133.309,133.89 131.784,134.871C130.259,135.853 129.496,137.346 129.496,139.351C129.496,140.631 129.754,141.634 130.271,142.359C130.787,143.085 131.432,143.639 132.207,144.023C132.981,144.407 133.837,144.642 134.776,144.727C135.715,144.813 136.607,144.855 137.451,144.855C138.531,144.855 139.645,144.802 140.795,144.695C141.945,144.589 142.966,144.429 143.858,144.215L143.858,133.783ZM143.858,127.575C143.858,125.058 143.154,123.309 141.746,122.327C140.338,121.346 138.296,120.855 135.621,120.855C133.978,120.855 132.441,120.973 131.01,121.207C129.578,121.442 128.182,121.751 126.821,122.135C125.929,120.727 125.483,119.042 125.483,117.079C127.079,116.61 128.839,116.247 130.763,115.991C132.688,115.735 134.541,115.607 136.325,115.607C141.018,115.607 144.585,116.578 147.026,118.519C149.466,120.461 150.687,123.565 150.687,127.831L150.687,148.375C149.044,148.717 147.049,149.069 144.703,149.431C142.356,149.794 139.962,149.975 137.522,149.975C135.222,149.975 133.145,149.783 131.291,149.399C129.437,149.015 127.865,148.397 126.575,147.543C125.284,146.69 124.287,145.602 123.583,144.279C122.879,142.957 122.527,141.357 122.527,139.479C122.527,137.645 122.937,136.034 123.759,134.647C124.58,133.261 125.695,132.109 127.103,131.191C128.511,130.274 130.13,129.591 131.96,129.143C133.791,128.695 135.715,128.471 137.733,128.471C139.235,128.471 140.467,128.503 141.429,128.567C142.391,128.631 143.201,128.706 143.858,128.791L143.858,127.575Z" style="fill-rule:nonzero;"/>
        <path d="M157.656,116.375C158.172,116.29 158.677,116.226 159.17,116.183C159.663,116.141 160.167,116.119 160.683,116.119C161.2,116.119 161.681,116.141 162.127,116.183C162.572,116.226 163.053,116.29 163.57,116.375C163.711,117.015 163.851,117.879 163.992,118.967C164.133,120.055 164.203,120.962 164.203,121.687C164.673,120.962 165.271,120.237 165.999,119.511C166.726,118.786 167.559,118.135 168.498,117.559C169.436,116.983 170.516,116.514 171.736,116.151C172.956,115.789 174.294,115.607 175.749,115.607C179.879,115.607 182.93,116.685 184.901,118.839C186.872,120.994 187.858,124.183 187.858,128.407L187.858,149.207C187.341,149.293 186.755,149.357 186.098,149.399C185.441,149.442 184.854,149.463 184.338,149.463C183.821,149.463 183.247,149.442 182.613,149.399C181.979,149.357 181.404,149.293 180.888,149.207L180.888,130.135C180.888,127.106 180.372,124.877 179.339,123.447C178.307,122.018 176.664,121.303 174.411,121.303C173.097,121.303 171.853,121.517 170.68,121.943C169.507,122.37 168.474,123.031 167.583,123.927C166.691,124.823 165.975,125.986 165.435,127.415C164.896,128.845 164.626,130.562 164.626,132.567L164.626,149.207C164.109,149.293 163.535,149.357 162.901,149.399C162.267,149.442 161.692,149.463 161.176,149.463C160.66,149.463 160.073,149.442 159.416,149.399C158.759,149.357 158.172,149.293 157.656,149.207L157.656,116.375Z" style="fill-rule:nonzero;"/>
        <path d="M208.555,103.127C209.259,103.042 210.092,102.957 211.055,102.871C212.017,102.786 213.026,102.711 214.082,102.647C215.138,102.583 216.194,102.53 217.25,102.487C218.306,102.445 219.327,102.423 220.312,102.423C222.893,102.423 225.346,102.658 227.669,103.127C229.992,103.597 232.034,104.407 233.794,105.559C235.554,106.711 236.95,108.237 237.983,110.135C239.015,112.034 239.531,114.413 239.531,117.271C239.531,120.258 238.98,122.743 237.877,124.727C236.774,126.711 235.319,128.301 233.512,129.495C231.705,130.69 229.652,131.533 227.352,132.023C225.052,132.514 222.706,132.759 220.312,132.759C219.42,132.759 218.634,132.749 217.954,132.727C217.273,132.706 216.534,132.653 215.736,132.567L215.736,149.207C214.61,149.335 213.413,149.399 212.146,149.399C211.583,149.399 210.984,149.389 210.351,149.367C209.717,149.346 209.119,149.293 208.555,149.207L208.555,103.127ZM215.736,126.871C216.487,126.957 217.144,127.021 217.707,127.063C218.271,127.106 219.092,127.127 220.171,127.127C221.626,127.127 223.069,126.989 224.501,126.711C225.932,126.434 227.211,125.933 228.338,125.207C229.464,124.482 230.368,123.49 231.048,122.231C231.729,120.973 232.069,119.341 232.069,117.335C232.069,115.586 231.776,114.114 231.189,112.919C230.602,111.725 229.793,110.765 228.76,110.039C227.728,109.314 226.484,108.802 225.029,108.503C223.574,108.205 222.002,108.055 220.312,108.055C218.576,108.055 217.05,108.119 215.736,108.247L215.736,126.871Z" style="fill-rule:nonzero;"/>
        <path d="M244.319,116.375C244.835,116.29 245.328,116.226 245.797,116.183C246.266,116.141 246.759,116.119 247.275,116.119C247.792,116.119 248.308,116.141 248.824,116.183C249.34,116.226 249.81,116.29 250.232,116.375C250.373,117.015 250.514,117.858 250.655,118.903C250.795,119.949 250.866,120.834 250.866,121.559C251.851,120.109 253.154,118.85 254.773,117.783C256.392,116.717 258.469,116.183 261.003,116.183C261.379,116.183 261.766,116.194 262.165,116.215C262.564,116.237 262.904,116.269 263.186,116.311C263.28,116.695 263.35,117.101 263.397,117.527C263.444,117.954 263.467,118.402 263.467,118.871C263.467,119.383 263.432,119.917 263.362,120.471C263.291,121.026 263.209,121.559 263.115,122.071C262.74,121.986 262.353,121.943 261.954,121.943L261.003,121.943C259.736,121.943 258.528,122.103 257.378,122.423C256.228,122.743 255.195,123.309 254.28,124.119C253.365,124.93 252.637,126.039 252.098,127.447C251.558,128.855 251.288,130.669 251.288,132.887L251.288,149.207C250.772,149.293 250.197,149.357 249.563,149.399C248.93,149.442 248.355,149.463 247.839,149.463C247.322,149.463 246.747,149.442 246.114,149.399C245.48,149.357 244.882,149.293 244.319,149.207L244.319,116.375Z" style="fill-rule:nonzero;"/>
        <path d="M281.631,149.975C278.815,149.975 276.351,149.538 274.239,148.663C272.127,147.789 270.367,146.583 268.959,145.047C267.551,143.511 266.506,141.698 265.826,139.607C265.145,137.517 264.805,135.255 264.805,132.823C264.805,130.391 265.145,128.13 265.826,126.039C266.506,123.949 267.551,122.135 268.959,120.599C270.367,119.063 272.127,117.847 274.239,116.951C276.351,116.055 278.815,115.607 281.631,115.607C284.447,115.607 286.911,116.055 289.023,116.951C291.135,117.847 292.895,119.063 294.303,120.599C295.711,122.135 296.755,123.949 297.435,126.039C298.116,128.13 298.456,130.391 298.456,132.823C298.456,135.255 298.116,137.517 297.435,139.607C296.755,141.698 295.711,143.511 294.303,145.047C292.895,146.583 291.135,147.789 289.023,148.663C286.911,149.538 284.447,149.975 281.631,149.975ZM281.631,144.919C284.869,144.919 287.263,143.853 288.811,141.719C290.36,139.586 291.135,136.621 291.135,132.823C291.135,129.026 290.36,126.071 288.811,123.959C287.263,121.847 284.869,120.791 281.631,120.791C278.392,120.791 276.01,121.847 274.485,123.959C272.96,126.071 272.197,129.026 272.197,132.823C272.197,136.621 272.96,139.586 274.485,141.719C276.01,143.853 278.392,144.919 281.631,144.919Z" style="fill-rule:nonzero;"/>
        <path d="M303.666,116.375C304.182,116.29 304.769,116.226 305.426,116.183C306.083,116.141 306.646,116.119 307.115,116.119C307.632,116.119 308.218,116.141 308.875,116.183C309.532,116.226 310.119,116.29 310.635,116.375L310.635,134.359C310.635,136.407 310.847,138.103 311.269,139.447C311.691,140.791 312.325,141.847 313.17,142.615C314.015,143.383 315.047,143.917 316.267,144.215C317.488,144.514 318.896,144.663 320.491,144.663C322.885,144.663 324.927,144.429 326.616,143.959L326.616,116.375C327.132,116.29 327.707,116.226 328.341,116.183C328.975,116.141 329.549,116.119 330.066,116.119C330.582,116.119 331.157,116.141 331.791,116.183C332.424,116.226 332.999,116.29 333.515,116.375L333.515,148.183C331.873,148.61 329.913,149.015 327.637,149.399C325.361,149.783 323.002,149.975 320.562,149.975C318.262,149.975 316.091,149.794 314.05,149.431C312.008,149.069 310.213,148.333 308.664,147.223C307.115,146.114 305.895,144.557 305.003,142.551C304.112,140.546 303.666,137.901 303.666,134.615L303.666,116.375Z" style="fill-rule:nonzero;"/>
        <path d="M336.543,116.375C337.2,116.29 337.88,116.226 338.584,116.183C339.288,116.141 339.922,116.119 340.485,116.119C341.095,116.119 341.764,116.141 342.491,116.183C343.219,116.226 343.841,116.29 344.357,116.375L354.213,143.447L364.139,116.375C364.656,116.29 365.242,116.226 365.899,116.183C366.556,116.141 367.19,116.119 367.8,116.119C368.316,116.119 368.903,116.141 369.56,116.183C370.217,116.226 370.874,116.29 371.531,116.375L357.451,149.207C356.841,149.293 356.231,149.357 355.621,149.399C355.011,149.442 354.448,149.463 353.931,149.463C353.415,149.463 352.864,149.442 352.277,149.399C351.69,149.357 351.115,149.293 350.552,149.207L336.543,116.375Z" style="fill-rule:nonzero;"/>
        <path d="M380.12,134.359C380.214,137.943 381.235,140.567 383.183,142.231C385.13,143.895 388.005,144.727 391.807,144.727C395.139,144.727 398.307,144.194 401.311,143.127C401.686,143.767 401.991,144.546 402.226,145.463C402.46,146.381 402.601,147.287 402.648,148.183C401.099,148.781 399.398,149.229 397.544,149.527C395.69,149.826 393.637,149.975 391.384,149.975C388.099,149.975 385.283,149.559 382.936,148.727C380.589,147.895 378.653,146.722 377.128,145.207C375.603,143.693 374.488,141.901 373.784,139.831C373.08,137.762 372.728,135.49 372.728,133.015C372.728,130.583 373.068,128.311 373.749,126.199C374.429,124.087 375.474,122.253 376.882,120.695C378.29,119.138 380.061,117.901 382.197,116.983C384.332,116.066 386.855,115.607 389.765,115.607C392.252,115.607 394.435,115.991 396.312,116.759C398.189,117.527 399.762,118.583 401.029,119.927C402.296,121.271 403.258,122.871 403.915,124.727C404.572,126.583 404.901,128.599 404.901,130.775C404.901,131.373 404.877,132.002 404.831,132.663C404.784,133.325 404.737,133.89 404.69,134.359L380.12,134.359ZM398.002,129.623C398.002,128.429 397.826,127.287 397.474,126.199C397.122,125.111 396.605,124.162 395.925,123.351C395.244,122.541 394.376,121.89 393.32,121.399C392.264,120.909 391.009,120.663 389.554,120.663C386.691,120.663 384.497,121.453 382.971,123.031C381.446,124.61 380.519,126.807 380.191,129.623L398.002,129.623ZM390.399,111.191C389.882,111.277 389.319,111.341 388.709,111.383C388.099,111.426 387.418,111.447 386.667,111.447C386.151,111.447 385.623,111.426 385.083,111.383C384.544,111.341 383.992,111.277 383.429,111.191L391.525,103.063C392.229,102.978 392.956,102.914 393.707,102.871C394.458,102.829 395.233,102.807 396.031,102.807C396.875,102.807 397.65,102.829 398.354,102.871C399.058,102.914 399.738,102.978 400.395,103.063L390.399,111.191Z" style="fill-rule:nonzero;"/>
    </g>
</svg>
